<svg width="24" height="24" viewBox="0 0 24 24" fill="none" xmlns="http://www.w3.org/2000/svg">
<path d="M23.8879 11.719L12.2858 0.116849C12.1296 -0.0392753 11.8764 -0.0392753 11.7202 0.116849L0.118134 11.719C-0.0380407 11.8754 -0.0377407 12.1289 0.118734 12.2851C0.275208 12.4412 0.528667 12.4409 0.684842 12.2845L2.00463 10.9619V23.5998C2.00463 23.8207 2.1837 23.9998 2.40456 23.9998H21.6014C21.8223 23.9998 22.0014 23.8207 22.0014 23.5998V10.9619L23.3212 12.2817C23.48 12.4351 23.7332 12.4307 23.8867 12.2719C24.0363 12.1169 24.0363 11.8712 23.8867 11.7162L23.8879 11.719ZM14.8025 23.1999H9.20346V17.2009C9.20346 15.6547 10.4569 14.4013 12.003 14.4013C13.5492 14.4013 14.8025 15.6547 14.8025 17.2009V23.1999ZM21.2015 23.1999H15.6024V17.2009C15.6024 15.213 13.9909 13.6015 12.003 13.6015C10.0151 13.6015 8.40359 15.213 8.40359 17.2009V23.1999H2.8045V10.162L12.003 0.963512L21.2015 10.162V23.1999Z" fill="#191919"/>
</svg>
